<svg width="586" height="110" viewBox="0 0 586 110" fill="none" xmlns="http://www.w3.org/2000/svg">
<path d="M47.0964 90.5258C45.4038 91.1182 43.7112 91.626 42.0186 92.0492C40.326 92.4723 38.3372 92.8955 36.0522 93.3186C33.7672 93.6571 31.5668 93.8687 29.4511 93.9533C27.3354 93.9533 25.0927 93.7418 22.723 93.3186C20.438 92.8955 18.28 92.2184 16.2489 91.2875C14.3024 90.3566 12.3982 89.0025 10.5364 87.2253C8.75916 85.4481 7.23583 83.3323 5.96639 80.8781C4.69694 78.4238 3.68139 75.3771 2.91972 71.7381C2.15805 68.099 1.77722 64.0368 1.77722 59.5514C1.77722 55.1507 1.94648 50.8346 2.285 46.6031C2.62352 42.3716 3.04667 38.6056 3.55444 35.305C4.14685 31.9198 4.78157 28.7462 5.45861 25.7842C6.13565 22.7375 6.77037 20.1563 7.36277 18.0406C8.03981 15.8402 8.63222 13.9784 9.14 12.455C9.7324 10.8471 10.1979 9.66226 10.5364 8.9006L11.0442 7.7581L35.0367 13.8514C35.0367 13.9361 34.9943 14.063 34.9097 14.2323C34.0634 15.9249 33.3017 17.5751 32.6247 19.1831C31.9477 20.7911 30.8052 23.6261 29.1972 27.6884C27.5892 31.7506 26.3621 35.5166 25.5158 38.9864C24.6695 42.3716 23.7809 46.2646 22.85 50.6653C22.0037 55.066 21.8344 58.9167 22.3422 62.2172C22.9346 65.4332 23.9502 68.4375 25.3889 71.2303C26.8276 74.0231 29.3242 75.9695 32.8786 77.0697C36.433 78.1699 40.8761 78.3392 46.2078 77.5775C45.3615 67.5066 44.9806 57.6049 45.0653 47.8725C45.1499 38.0555 45.9116 25.3611 47.3503 9.78921L67.7883 10.297C67.3652 28.0692 66.8997 43.9372 66.3919 57.9011C65.9688 71.7804 65.5879 81.2589 65.2494 86.3367L64.8686 93.8264L47.3503 95.3497C47.2656 93.7418 47.181 92.1338 47.0964 90.5258ZM100.116 43.6834C100.116 51.9771 99.4394 60.6516 98.0854 69.707C96.8159 78.6777 95.5042 85.6173 94.1501 90.5258L92.119 97.8886L70.0307 93.0647C71.8925 87.9023 73.6274 82.486 75.2354 76.8158C76.8433 71.1457 78.1974 65.8563 79.2976 60.9478C80.3978 55.9546 81.4133 51.0884 82.3443 46.3492C83.2752 41.6099 83.9945 37.3361 84.5023 33.5278C85.0947 29.7195 85.5602 26.3766 85.8987 23.4992C86.3218 20.6218 86.6181 18.3791 86.7873 16.7711C86.9566 15.0786 87.0835 14.1899 87.1681 14.1053L103.544 11.5664C105.998 26.3766 110.864 38.9864 118.143 49.3959L131.726 11.4395C134.603 11.5241 137.523 11.5241 140.485 11.4395C143.447 11.2702 145.69 11.101 147.213 10.9317L149.498 10.6778L149.371 11.9473L149.498 11.8203C149.244 20.5372 151.233 34.5857 155.464 53.9659C159.696 73.2614 163.885 86.9714 168.032 95.0958L143.531 99.1581C140.485 92.8108 138.454 75.5464 137.438 47.3647C135.746 51.8501 133.757 56.2932 131.472 60.6939C129.271 65.0946 127.198 68.8607 125.251 71.992C123.305 75.0386 121.443 77.8314 119.666 80.3703C117.973 82.8245 116.619 84.6441 115.604 85.8289L114.08 87.6061L106.21 81.6397C107.649 77.7468 109.045 74.0231 110.399 70.4686C105.66 62.6827 102.232 53.7543 100.116 43.6834ZM228.433 29.8464C224.879 30.1003 221.367 30.2696 217.897 30.3542C221.621 47.534 227.841 66.9988 236.558 88.7486L213.327 93.6994C212.227 84.6441 211.169 74.5308 210.153 63.3597C206.514 63.1905 202.918 62.9366 199.363 62.5981C198.432 68.5221 197.29 74.3616 195.936 80.1164C194.582 85.8712 193.439 90.145 192.508 92.9378L191.239 97L166.738 89.0025C172.578 79.8625 177.613 70.0878 181.845 59.6784C177.106 58.4935 172.832 57.1395 169.023 55.6161L173.34 44.9528C176.132 46.3915 180.364 47.4071 186.034 47.9995C188.234 41.3984 190.012 34.8396 191.366 28.3231C185.272 27.3075 179.941 25.9958 175.371 24.3878C176.048 23.3723 176.979 21.5527 178.163 18.9292C179.433 16.2211 180.533 13.7668 181.464 11.5664L182.86 8.26587C190.223 10.8894 198.051 12.9205 206.345 14.3592C214.639 15.7979 221.705 16.6019 227.545 16.7711L228.433 29.8464ZM201.14 48.1264C203.679 47.9572 206.26 47.6609 208.884 47.2378C208.461 40.9752 208.165 35.305 207.995 30.2273C205.964 30.1426 203.891 29.9734 201.775 29.7195C201.944 35.6435 201.733 41.7792 201.14 48.1264ZM255.46 32.7661L259.395 96.4922L237.941 96.1114C238.026 93.4032 238.153 89.7642 238.322 85.1942C238.576 80.6242 239.211 72.669 240.226 61.3286C241.242 49.9036 242.511 40.1289 244.035 32.0045L255.46 32.7661ZM256.094 23.88C254.656 25.3187 252.878 26.0381 250.763 26.0381C248.647 26.0381 246.827 25.3187 245.304 23.88C243.781 22.3567 243.019 20.5372 243.019 18.4214C243.019 16.3057 243.781 14.4861 245.304 12.9628C246.827 11.4395 248.647 10.6778 250.763 10.6778C252.878 10.6778 254.656 11.4395 256.094 12.9628C257.618 14.4861 258.379 16.3057 258.379 18.4214C258.379 20.5372 257.618 22.3567 256.094 23.88ZM278.352 74.9117L268.197 74.15L264.008 8.51976L286.096 8.9006C284.403 34.0356 281.822 56.0393 278.352 74.9117ZM280.637 87.0983C281.145 89.2141 280.807 91.2029 279.622 93.0647C278.522 94.9266 276.914 96.1114 274.798 96.6192C272.682 97.1269 270.693 96.8307 268.832 95.7306C266.97 94.5457 265.785 92.8955 265.277 90.7797C264.769 88.664 265.065 86.6752 266.166 84.8133C267.35 82.9515 269.001 81.7667 271.117 81.2589C273.232 80.7511 275.221 81.0896 277.083 82.2745C278.945 83.3746 280.13 84.9826 280.637 87.0983Z" fill="#FF7A41"/>
<path d="M343.23 66.2343C343.23 64.6348 342.811 63.2257 341.973 62.0071C341.174 60.7503 340.031 59.7792 338.546 59.0937C337.099 58.3701 335.404 58.0083 333.462 58.0083C331.253 58.0083 329.177 58.1797 327.235 58.5224C325.293 58.8652 323.522 59.2651 321.922 59.7221C320.361 60.1791 319.009 60.5599 317.867 60.8646C316.991 61.1311 316.134 61.4168 315.296 61.7214C314.496 62.0261 313.754 62.3308 313.068 62.6354L311.583 57.3228C312.383 57.2466 313.239 57.1324 314.153 56.9801C315.106 56.8277 316.001 56.6564 316.838 56.4659C318.209 56.1613 319.79 55.7995 321.58 55.3806C323.408 54.9617 325.369 54.5808 327.464 54.2381C329.596 53.8953 331.748 53.7239 333.919 53.7239C336.623 53.7239 339.041 54.219 341.174 55.2092C343.306 56.1994 344.982 57.6465 346.201 59.5507C347.457 61.4168 348.086 63.7018 348.086 66.4057C348.086 69.5285 347.438 72.3086 346.143 74.7459C344.849 77.1452 343.021 79.2398 340.659 81.0297C338.336 82.7815 335.594 84.2477 332.433 85.4283C329.273 86.6089 325.845 87.4658 322.151 87.9989L319.58 83.6574C323.008 83.2385 326.169 82.5721 329.063 81.6581C331.957 80.706 334.452 79.5254 336.546 78.1163C338.679 76.7072 340.317 75.0125 341.459 73.0322C342.64 71.0519 343.23 68.7859 343.23 66.2343ZM319.238 40.5281C320.799 40.8708 322.665 41.1945 324.836 41.4992C327.045 41.8039 329.311 42.0895 331.634 42.3561C333.995 42.5846 336.204 42.775 338.26 42.9273C340.355 43.0797 342.107 43.1558 343.516 43.1558L342.83 47.5544C341.231 47.4402 339.365 47.3069 337.232 47.1546C335.137 46.9642 332.948 46.7547 330.663 46.5262C328.416 46.2596 326.226 45.993 324.093 45.7264C321.999 45.4218 320.133 45.1362 318.495 44.8696L319.238 40.5281ZM391.958 39.8997C391.882 40.3948 391.805 40.947 391.729 41.5563C391.691 42.1657 391.653 42.8892 391.615 43.7271C391.615 44.2983 391.596 45.1552 391.558 46.2977C391.558 47.4402 391.558 48.735 391.558 50.1822C391.558 51.5913 391.558 53.0194 391.558 54.4666C391.558 55.9137 391.558 57.2466 391.558 58.4653C391.558 60.3695 391.596 62.3689 391.672 64.4634C391.748 66.558 391.843 68.5955 391.958 70.5758C392.072 72.5561 392.167 74.3651 392.243 76.0027C392.319 77.6403 392.358 78.9351 392.358 79.8872C392.358 81.2201 392.034 82.4959 391.386 83.7146C390.777 84.9332 389.73 85.9234 388.245 86.6851C386.797 87.4848 384.817 87.8847 382.304 87.8847C378.191 87.8847 375.049 87.1611 372.878 85.7139C370.707 84.3048 369.622 82.2293 369.622 79.4873C369.622 77.7355 370.136 76.2121 371.164 74.9173C372.231 73.6225 373.754 72.6133 375.734 71.8897C377.715 71.128 380.076 70.7472 382.818 70.7472C385.826 70.7472 388.644 71.109 391.272 71.8326C393.938 72.5181 396.375 73.394 398.584 74.4603C400.793 75.5266 402.754 76.6501 404.468 77.8307C406.182 78.9732 407.591 80.0014 408.695 80.9154L406.068 84.9713C404.773 83.7526 403.268 82.534 401.555 81.3153C399.879 80.0966 398.032 78.9732 396.014 77.9449C394.033 76.9167 391.882 76.0979 389.558 75.4886C387.273 74.8411 384.836 74.5174 382.246 74.5174C379.504 74.5174 377.41 74.9744 375.963 75.8884C374.554 76.8024 373.849 77.9259 373.849 79.2588C373.849 80.0966 374.116 80.8773 374.649 81.6009C375.182 82.2864 376.039 82.8386 377.219 83.2576C378.4 83.6765 379.923 83.8859 381.789 83.8859C382.894 83.8859 383.903 83.7526 384.817 83.4861C385.731 83.1814 386.455 82.6673 386.988 81.9437C387.559 81.2201 387.845 80.2109 387.845 78.9161C387.845 77.8116 387.807 76.3835 387.73 74.6317C387.692 72.8418 387.635 70.9566 387.559 68.9763C387.483 66.9579 387.407 65.0156 387.331 63.1496C387.292 61.2835 387.273 59.7221 387.273 58.4653C387.273 57.1705 387.273 55.8566 387.273 54.5237C387.273 53.1527 387.273 51.8007 387.273 50.4678C387.273 49.1349 387.273 47.8591 387.273 46.6404C387.312 45.4218 387.331 44.3174 387.331 43.3272C387.331 42.8702 387.312 42.2799 387.273 41.5563C387.235 40.8327 387.178 40.2805 387.102 39.8997H391.958ZM370.079 46.1263C371.031 46.2787 372.135 46.431 373.392 46.5833C374.649 46.7357 375.963 46.888 377.334 47.0403C378.743 47.1546 380.076 47.2498 381.332 47.3259C382.627 47.364 383.751 47.3831 384.703 47.3831C388.321 47.3831 392.015 47.2498 395.785 46.9832C399.593 46.7166 403.345 46.2787 407.039 45.6693L406.982 49.8394C404.887 50.0679 402.602 50.2964 400.127 50.5249C397.651 50.7534 395.1 50.9439 392.472 51.0962C389.882 51.2485 387.312 51.3247 384.76 51.3247C383.427 51.3247 381.847 51.2676 380.019 51.1533C378.191 51.0391 376.382 50.9058 374.592 50.7534C372.84 50.6011 371.355 50.4678 370.136 50.3536L370.079 46.1263ZM369.793 58.2368C370.821 58.3891 371.964 58.5415 373.221 58.6938C374.477 58.8461 375.772 58.9604 377.105 59.0366C378.438 59.1127 379.714 59.1889 380.933 59.2651C382.151 59.3031 383.237 59.3222 384.189 59.3222C386.969 59.3222 389.654 59.2651 392.243 59.1508C394.871 58.9985 397.442 58.8081 399.955 58.5796C402.507 58.313 405.02 57.9893 407.496 57.6084L407.439 61.8928C405.534 62.1594 403.63 62.3879 401.726 62.5783C399.86 62.7306 397.975 62.8639 396.071 62.9782C394.205 63.0924 392.281 63.1876 390.301 63.2638C388.359 63.3019 386.302 63.3209 384.132 63.3209C382.837 63.3209 381.332 63.2829 379.619 63.2067C377.943 63.1305 376.229 63.0353 374.477 62.9211C372.764 62.8068 371.221 62.6735 369.85 62.5212L369.793 58.2368ZM429.089 45.3837C429.013 45.8407 428.937 46.4119 428.86 47.0974C428.822 47.7829 428.765 48.4684 428.689 49.1539C428.651 49.8394 428.632 50.4297 428.632 50.9248C428.594 52.1054 428.575 53.4574 428.575 54.9807C428.613 56.4659 428.651 58.0274 428.689 59.6649C428.765 61.2644 428.879 62.8639 429.032 64.4634C429.336 67.6244 429.851 70.4044 430.574 72.8037C431.298 75.1648 432.174 77.0119 433.202 78.3448C434.268 79.6777 435.468 80.3442 436.801 80.3442C437.524 80.3442 438.229 80.0205 438.914 79.3731C439.6 78.6876 440.247 77.7926 440.857 76.6882C441.504 75.5457 442.075 74.2889 442.57 72.9179C443.104 71.5089 443.542 70.0998 443.884 68.6907L447.483 72.7466C446.341 75.9836 445.179 78.5543 443.999 80.4584C442.856 82.3245 441.675 83.6765 440.457 84.5143C439.276 85.3521 438.038 85.7711 436.744 85.7711C434.954 85.7711 433.221 85.1236 431.545 83.8288C429.87 82.4959 428.422 80.3632 427.204 77.4308C425.985 74.4603 425.109 70.5187 424.576 65.6059C424.386 63.9303 424.233 62.1213 424.119 60.1791C424.043 58.2368 423.986 56.3898 423.948 54.6379C423.948 52.8861 423.948 51.458 423.948 50.3536C423.948 49.7062 423.929 48.8683 423.891 47.8401C423.852 46.8118 423.738 45.9549 423.548 45.2694L429.089 45.3837ZM458.851 46.9832C459.879 48.278 460.85 49.8014 461.764 51.5532C462.716 53.2669 463.573 55.114 464.335 57.0943C465.135 59.0366 465.839 61.055 466.449 63.1496C467.096 65.2441 467.61 67.3387 467.991 69.4333C468.41 71.4898 468.715 73.4701 468.905 75.3743L464.335 77.2594C464.107 74.6698 463.707 72.042 463.135 69.3762C462.564 66.6723 461.86 64.0636 461.022 61.5501C460.184 58.9985 459.213 56.5992 458.108 54.3523C457.004 52.1054 455.766 50.1632 454.395 48.5256L458.851 46.9832Z" fill="#FFF5EA"/>
</svg>
